<svg xmlns="http://www.w3.org/2000/svg" xmlns:xlink="http://www.w3.org/1999/xlink" viewBox="0 0 32 32"><defs><path id="a" d="M.03.042h3.681v9.291H.03z"/></defs><g fill="none" fill-rule="evenodd"><g transform="translate(14 15.415)"><mask id="b" fill="#fff"><use xlink:href="#a"/></mask><path fill="#1A171B" d="M.06 1.29c.28.9.43 1.5.53 3.97.1 2.46.03 2.93.65 3.43.32-.22.35-.28.54-.31.03.47 0 .81.09.87.1.07.22.13.28.04.06-.1.31-.22.6-.32.26-.08.5-.2.74-.34.13-1.12.1-1.56.1-2.25s.12-2.25.12-3.56S3.52.92 3.43.7c-.1-.22-.16-.35-.47-.22-.31.12-.78.1-.9.25L1.8.29c-.1-.16-.1-.31-.47-.22L.28.38C.15.41.12.66.06.78c-.06.13 0 .5 0 .5" mask="url(#b)"/></g><path fill="#00519E" d="M.45 24.13c.14-.21.14-.42.06-.5.1-.25.17-.53.17-.53.1-.1.22-.19.35-.24a27.35 27.35 0 0 0 2.67-.28c.7-.09 2.9-.3 4.2-.34a75 75 0 0 1 5.15 0l.19.16s-.22.77-.15 1.45a.45.45 0 0 1-.33.22c-.11 0-5.46-.05-8.86.35-3.4.4-3.1.2-3.1.2l-.36-.5M.33 19.9c-.17-.21-.3-.35-.26-.54.05-.19.17-.26.05-.35A.3.3 0 0 1 0 18.8s.14-.05.19-.3c.04-.26.42-.5.51-.5.1 0 1.27-.37 2.04-.42.77-.05 2.37-.3 3.3-.42.94-.12 5.02-.3 5.2-.3.2 0 .26.04.26.11.8-.02 1.2-.05 1.3 0 .13.06.23.17.3.3.07.17-.05.08.02.15.07.07-.02.18-.1.23.03.21-.04.4-.06.59-.03.18-.03.28.02.35.05.07-.07.19-.26.19s-3.3-.03-5.72.2c-2.4.24-3.74.47-4.1.54-.35.07-.74.03-1.05.12-.3.1-.94.35-1.52.26m.89.47c1.12 0 1.8-.07 3.12-.22 1.31-.16 4.88-.53 6.1-.53.37 0 .71.03.84-.03.12-.07.22-.16.62-.16a.8.8 0 0 1 .6.25s-.22 1.28-.16 1.6c-1.22.21-2.5.27-3.69.3-1.18.04-3.43.35-4.09.44a26.16 26.16 0 0 1-3.47.13s-.5-.41-.3-.66v-.31s.12-.5.43-.81m18.17 3.48a1.03 1.03 0 0 1-.4-.16c-.07-.55-.04-.83.03-1.07 0 0-.1-.23 0-.33 2.78-2.5 4.6-2.03 4.95-1.92.36.11.33.1.74.36.4.26 1.82 1.29 2.87 1.61 1.04.33 1.93-.01 2.9-.8.2-.16.79-.86 1.25-.65l.27.28s-.23.1-.3.56c-.06.3-.14.6-.25.9-.25.25-.4.33-.5.3-.08-.02-.07.05-.4.27-.34.23-1.67 1.15-2.13 1.14a6.47 6.47 0 0 1-1.71-.27c-.63-.2-1.52-.7-2.24-1.22-.72-.52-1.06-.99-2.23-.6a9 9 0 0 0-2.57 1.3l-.29.3"/><path fill="#009EE0" d="M6.13 14.44c-.08.34.26 1.17.35 1.4.1.24.16.24.16.24.2-.02.4-.08.59-.18 1.95-2.38 6.28-5.71 10.4-6.33.68 2.35.6 2.28 1.28 3.81.7 1.54 1.04 1.84 1.44 3.53.39 1.7.53 2.05.75 2.18.22.13.12.2.11.31 0 .12.96-.3 1.2-.54.23.05.42.07.4-.17-.02-.23-.13-.27-.22-.59-.1-.31-.4-2.38-1.15-4.2-.75-1.8-.94-1.84-1.5-3.56a16.23 16.23 0 0 1-.76-2.73c-.02-.27-.22-.63-.22-.63s-1.35.13-2.4.36c-1.04.22-5.52 2.3-6.92 3.61-1.4 1.31-3.18 2.81-3.51 3.5"/><path fill="#FFD500" d="M29.39 10.75c.25-.06.37-.24.37-.84s-.3-1.94-1.72-2.87c-1.4-.94-1.4-.94-1.56-.9-.15.02-.15 0-.37-.07-.22-.06-1.19.25-1.6.9-.4.66-1.09 2.16-.24 3.6.84 1.44 1.53 2.15 2.5 2.18.96.04 1.43.1 1.59.13.15.03.5.19.34.34-.15.16-.53.28-.9.28-.38 0-1.9.35-3.79-1a4.56 4.56 0 0 1-2.09-3.56c0-.53.22-2.62 1.5-3.43s2.13-.4 2.6-.4c.46 0 1.37.02 2.65.74 1.28.72 2.84 2.31 2.84 3.78 0 1.47-.62 1.75-.75 1.75-.12 0-.96.06-1.09 0-.12-.06-.56-.34-.28-.63"/></g></svg>