<svg enable-background="new 0 0 387.97 341.59" height="109" viewBox="0 0 387.97 341.59" width="124" xmlns="http://www.w3.org/2000/svg"><path d="m171.19 141.37c3.39 10.95 5.28 18.12 6.41 47.92s.37 35.47 7.92 41.51c3.77-2.65 4.15-3.39 6.42-3.78.37 5.66 0 9.81 1.13 10.57s2.64 1.51 3.39.38 3.77-2.65 7.17-3.77a40.73 40.73 0 0 0 9.06-4.15c1.51-13.58 1.13-18.86 1.13-27.17s1.51-27.17 1.51-43-2.26-23-3.39-25.66-1.89-4.15-5.67-2.64-9.42 1.14-10.94 3c0 0-1.88-3.39-3-5.28s-1.13-3.77-5.66-2.64-11.31 3.39-12.83 3.77-1.89 3.4-2.64 4.91 0 6 0 6" fill="#1a171b"/><path d="m16.1 185.52c13.58 0 21.88-.76 37.73-2.64s58.87-6.42 73.58-6.42c4.53 0 8.68.38 10.19-.37s2.64-1.89 7.55-1.89a9.1 9.1 0 0 1 7.17 3s-2.64 15.47-1.88 19.25c-14.72 2.64-30.19 3.39-44.52 3.77s-41.51 4.15-49.44 5.28-24.9 1.88-32.07 1.88a82.47 82.47 0 0 1 -9.81-.37s-6-4.91-3.58-7.93v-3.77s1.32-6 5.09-9.81" fill="#00519e"/><path d="m5.35 179.86c-2-2.55-3.67-4.24-3.11-6.51s2-3.11.56-4.24a3.54 3.54 0 0 1 -1.41-2.55s1.69-.57 2.26-3.68 5.09-5.94 6.23-5.94 15.28-4.53 24.62-5.09 28.58-3.68 39.9-5.09 60.56-3.68 62.83-3.68 3.11.57 3.11 1.42c9.62-.28 14.43-.57 15.57 0a7.63 7.63 0 0 1 3.67 3.68c.85 2-.56.85.28 1.7s-.28 2.26-1.13 2.83c.28 2.55-.56 4.82-.85 7.08s-.28 3.39.28 4.24-.85 2.27-3.12 2.27-39.89-.3-69.04 2.53-45.28 5.66-49.52 6.5-9.05.28-12.73 1.42-11.33 4.25-18.4 3.11" fill="#00519e"/><path d="m6.77 231.08c1.69-2.55 1.69-5.09.84-5.94 1.14-3.11 2-6.51 2-6.51a10.08 10.08 0 0 1 4.25-2.83 57.25 57.25 0 0 1 10.14-.8c2.83 0 13.59-1.41 22.08-2.55s35.09-3.68 50.66-4.24 57.73-.85 62.26 0l2.26 2s-2.55 9.34-1.7 17.55a5.2 5.2 0 0 1 -4 2.55c-1.41 0-65.94-.57-107 4.25s-37.56 2.44-37.56 2.44l-4.24-5.94" fill="#00519e"/><path d="m5.52 335.65c1.69-2.55 1.69-5.09.84-5.94 1.14-3.11 2-6.51 2-6.51a10.14 10.14 0 0 1 4.25-2.83 57.35 57.35 0 0 1 10.18-.85c2.83 0 77.58-4.29 86.08-5.42s76.33-3.43 91.89-4 177.67 3 182.19 3.9l2.26 2s-2.55 9.34-1.69 17.54a5.24 5.24 0 0 1 -4 2.55c-1.42 0-227.11-4.72-268.14.09s-101.62 5.41-101.62 5.41z" fill="#ffd500"/><path d="m235.61 227.54a12.48 12.48 0 0 1 -4.93-1.93c-.73-6.55-.44-10 .46-12.9 0 0-1.21-2.81 0-3.93 33.54-30.26 55.49-24.6 59.81-23.25s4 1.24 8.92 4.36 22 15.56 34.64 19.49 23.39-.22 35-9.63c2.5-2 9.58-10.45 15.12-7.94l3.29 3.39s-2.73 1.13-3.69 6.76a65.38 65.38 0 0 1 -3 10.92c-2.93 3-4.82 4-5.9 3.69s-.94.5-5 3.2-20.13 13.89-25.63 13.76a78.37 78.37 0 0 1 -20.71-3.29c-7.56-2.36-18.3-8.47-27-14.75s-12.88-11.92-27-7.23-28 12.6-31 15.64l-3.51 3.65" fill="#00519e"/><path d="m75.41 114.07c-1 4.07 3.12 14.07 4.29 16.93s1.86 2.9 1.86 2.9a18.42 18.42 0 0 0 7.1-2.25c23.58-28.73 75.88-68.95 125.59-76.38 8.32 28.3 7.29 27.42 15.61 46s12.55 22.18 17.28 42.61 6.49 24.72 9.15 26.3 1.44 2.41 1.34 3.79 11.57-3.53 14.55-6.55c2.73.66 5 .83 4.77-2s-1.61-3.35-2.71-7.13-4.91-28.77-13.92-50.67-11.32-22.32-18.12-43.14-8.9-29.74-9.12-33-2.67-7.59-2.67-7.59-16.28 1.58-28.94 4.34-66.78 27.83-83.63 43.67-38.36 33.92-42.43 42.17" fill="#009ee0"/><path d="m356.37 69.52c3-.75 4.53-3 4.53-10.19s-3.77-23.39-20.76-34.71-17-11.32-18.86-10.94-1.89 0-4.53-.75-14.34 3-19.25 10.94-13.21 26-3 43.39 18.48 26 30.18 26.41 17.36 1.14 19.24 1.51 6 2.26 4.16 4.15-6.41 3.4-10.95 3.4-23 4.15-45.66-12.08-25.28-36.6-25.28-43 2.64-31.69 18.12-41.5 25.69-4.92 31.31-4.92 16.61.38 32.08 9.05 34.3 27.92 34.3 45.66-7.52 21.13-9 21.13-11.7.75-13.2 0-6.79-4.15-3.41-7.55" fill="#ffd500"/><g fill="#1a171b"><path d="m51.39 259.13a27.89 27.89 0 0 0 -19.13-7.7c-14 0-25.28 11.24-25.28 24s11.39 24 25.45 24a28.52 28.52 0 0 0 19-7.7v8a34.05 34.05 0 0 1 -18.71 5.7c-17.72.05-32.72-13.27-32.72-29.75 0-16.68 14.72-30.26 32.68-30.26a31.9 31.9 0 0 1 18.71 5.7z"/><path d="m91.67 246.42h32.52v6h-25.54v17.25h24.78v6h-24.78v22.79h25.53v6h-32.51z"/><path d="m195.06 257.74c-2.5-4-5.49-6.31-10.81-6.31-5.57 0-10.4 3.7-10.4 9 0 5 5.57 7.31 9.81 9.08l4.16 1.69c8.15 3.31 15.05 7.08 15.05 16.32 0 10.16-8.82 17.94-19.71 17.94-10.06 0-17.55-6-19.54-15l6.82-1.77a12.56 12.56 0 0 0 12.56 10.78c6.74 0 12.89-4.77 12.89-11.32 0-6.78-5.74-9.08-11.56-11.55l-3.83-1.54c-7.32-3.08-13.64-6.55-13.64-14.86 0-9 8.23-14.78 17.55-14.78a18.24 18.24 0 0 1 16.22 9z"/><path d="m250 243.11 22.79 48.74 22.87-48.74 12.72 61.37h-7.15l-8.07-39.27h-.16l-20.21 41.65-20.12-41.65h-.17l-8.07 39.27h-7.15z"/><path d="m353.58 298.47h17.3v6h-24.28v-58.05h7z"/><ellipse cx="379.46" cy="302.29" rx="2.99" ry="2.83"/><ellipse cx="313.4" cy="302.29" rx="2.99" ry="2.83"/><ellipse cx="208.56" cy="302.29" rx="2.99" ry="2.83"/><ellipse cx="133.56" cy="302.29" rx="2.99" ry="2.83"/><ellipse cx="58.23" cy="302.29" rx="2.99" ry="2.83"/></g></svg>